<?xml version="1.0" encoding="UTF-8" standalone="no"?>
<svg width="11px" height="9px" viewBox="0 0 11 9" version="1.1" xmlns="http://www.w3.org/2000/svg" xmlns:xlink="http://www.w3.org/1999/xlink" xmlns:sketch="http://www.bohemiancoding.com/sketch/ns">
    <!-- Generator: Sketch 3.4.4 (17249) - http://www.bohemiancoding.com/sketch -->
    <title>Icons/Mail</title>
    <desc>Created with Sketch.</desc>
    <defs></defs>
    <g id="Home" stroke="none" stroke-width="1" fill="none" fill-rule="evenodd" sketch:type="MSPage">
        <g id="Desktop-HD-Copy-28" sketch:type="MSArtboardGroup" transform="translate(-337.000000, -4321.000000)" fill="#FFFFFF">
            <g id="Footer/Desk" sketch:type="MSLayerGroup" transform="translate(322.000000, 4064.000000)">
                <g id="Olé" transform="translate(14.000000, 86.000000)" sketch:type="MSShapeGroup">
                    <g id="email" transform="translate(1.000000, 164.000000)">
                        <g id="Icons/Mail-+-info_ole@olelanguage" transform="translate(0.000000, 0.500000)">
                            <g id="Icons/Mail" transform="translate(0.000000, 6.000000)">
                                <path d="M10.5896424,3.51637412 C10.4123605,3.71605702 10.2114409,3.89153593 9.99870254,4.04281085 C9.01183297,4.7265735 8.01905399,5.41638714 7.05582201,6.13040478 C6.55943252,6.50556658 5.94485506,6.96544235 5.3007306,6.96544235 C4.64478735,6.96544235 4.03020989,6.50556658 3.5338204,6.13040478 C2.57058842,5.41033615 1.57780944,4.7265735 0.596849265,4.04281085 C0.378201515,3.89153593 0.17728196,3.71605702 0,3.51637412 L0,8.32086565 C0,8.85335338 0.425476704,9.28902515 0.945503787,9.28902515 L9.64413862,9.28902515 C10.1641657,9.28902515 10.5896424,8.85335338 10.5896424,8.32086565 L10.5896424,3.51637412 Z" id="Path"></path>
                                <path d="M9.64413862,0.769221536 L0.945503787,0.769221536 C0.313198129,0.769221536 0,1.27750527 0,1.87050297 C0,2.42114369 0.596849265,3.10490633 1.01641657,3.39535418 C1.93237336,4.04886185 2.86014895,4.70236951 3.77610575,5.36192817 C4.16021666,5.63422303 4.81025051,6.19091475 5.28891181,6.19091475 C5.7793919,6.19091475 6.42942575,5.63422303 6.81353666,5.36192817 C7.72949346,4.70236951 8.65726905,4.04886185 9.57913524,3.39535418 C10.0991623,3.02624337 10.5896424,2.41509269 10.5896424,1.73738104 C10.5896424,1.20489331 10.1582563,0.769221536 9.64413862,0.769221536 Z" id="Path"></path>
                            </g>
                        </g>
                    </g>
                </g>
            </g>
        </g>
    </g>
</svg>