<?xml version="1.0" encoding="UTF-8" standalone="no"?>
<svg width="11px" height="12px" viewBox="0 0 11 12" version="1.1" xmlns="http://www.w3.org/2000/svg" xmlns:xlink="http://www.w3.org/1999/xlink" xmlns:sketch="http://www.bohemiancoding.com/sketch/ns">
    <!-- Generator: Sketch 3.4.4 (17249) - http://www.bohemiancoding.com/sketch -->
    <title>Icons/Phone</title>
    <desc>Created with Sketch.</desc>
    <defs></defs>
    <g id="Home" stroke="none" stroke-width="1" fill="none" fill-rule="evenodd" sketch:type="MSPage">
        <g id="Desktop-HD-Copy-28" sketch:type="MSArtboardGroup" transform="translate(-336.000000, -4278.000000)" fill="#FFFFFF">
            <g id="Footer/Desk" sketch:type="MSLayerGroup" transform="translate(322.000000, 4064.000000)">
                <g id="Olé" transform="translate(14.000000, 86.000000)" sketch:type="MSShapeGroup">
                    <g id="Icons/Phone-Copy" transform="translate(0.000000, 128.000000)">
                        <path d="M6.15393742,6.89813026 C7.59543951,5.40240692 8.12042314,4.45143659 7.72890405,4.04519075 C7.71110773,4.02672503 7.67551562,3.98979414 7.62212666,3.93439698 C7.35518182,3.65741118 7.17277226,3.43582586 7.07489249,3.26963437 C6.97701272,3.10344289 6.95921666,2.85415941 7.02150379,2.52177645 C7.08379092,2.18939348 7.30179259,1.78315373 7.67551535,1.303045 C7.85347858,1.08145636 8.01809209,0.90141829 8.16936082,0.762925388 C8.32062956,0.624432486 8.47634504,0.550570713 8.63651194,0.541337853 C8.79667884,0.532104993 8.93014926,0.527488632 9.03692719,0.527488632 C9.14370512,0.527488632 9.27272652,0.587501323 9.42399526,0.707528504 C9.575264,0.827555686 9.68204033,0.91065018 9.74432745,0.956814481 C9.80661458,1.00297878 9.92228894,1.1183878 10.091354,1.303045 C10.2604191,1.48770221 10.3538483,1.58926214 10.3716447,1.60772786 C10.7987564,2.05090515 10.7720623,2.94647915 10.2915616,4.29447672 C9.81106093,5.6424743 8.90346211,6.99968438 7.56873796,8.36614767 C6.2340138,9.75107669 4.92155473,10.6974307 3.63132138,11.205238 C2.34108803,11.7130453 1.48242837,11.7453598 1.05531664,11.3021825 C1.03752032,11.2837168 0.935193,11.1821569 0.748331618,10.9974996 C0.561470236,10.8128424 0.450244891,10.6974334 0.414652247,10.6512691 C0.379059603,10.6051048 0.298977355,10.4943122 0.1744031,10.3188878 C0.0498288453,10.1434635 -0.00800833389,10.0003563 0.000889827158,9.88956197 C0.0097879882,9.77876765 0.0186860158,9.64027683 0.0275841768,9.47408535 C0.0364823379,9.30789387 0.103217545,9.14632124 0.227791799,8.98936262 C0.352366054,8.83240399 0.521428578,8.66159864 0.734984443,8.47694144 C1.10870721,8.1630242 1.42013817,7.94605524 1.66928668,7.82602806 C1.91843519,7.70600088 2.15868193,7.69676815 2.39003412,7.79832962 C2.62138631,7.89989108 2.77710179,7.98298557 2.85718524,8.04761559 C2.93726869,8.11224561 3.11078023,8.28305096 3.37772506,8.56003677 C3.76924415,8.96628261 4.69463901,8.41231931 6.15393742,6.89813026 L6.15393742,6.89813026 Z" id="Icons/Phone"></path>
                    </g>
                </g>
            </g>
        </g>
    </g>
</svg>